<?xml version="1.0" encoding="UTF-8" standalone="no"?>
<!-- Created with Inkscape (http://www.inkscape.org/) -->
<svg
   xmlns:svg="http://www.w3.org/2000/svg"
   xmlns="http://www.w3.org/2000/svg"
   version="1.0"
   width="956.69287"
   height="762.16534"
   id="svg11533">
  <defs
     id="defs11536">
    <clipPath
       id="clipPath2566">
      <path
         d="M 426.85,73.228 L 426.85,26.412 L 539.619,26.412 L 539.619,73.228"
         id="path2568" />
    </clipPath>
    <clipPath
       id="clipPath2546">
      <path
         d="M 426.85,73.228 L 426.85,26.412 L 539.619,26.412 L 539.619,73.228"
         id="path2548" />
    </clipPath>
    <clipPath
       id="clipPath2458">
      <path
         d="M 426.852,16.344 L 539.622,16.344 L 539.622,73.224 L 426.852,73.224 L 426.852,16.344 z"
         id="path2460" />
    </clipPath>
    <clipPath
       id="clipPath2702">
      <path
         d="M 136.842,126.206 L 136.842,89.01 L 221.901,89.01 L 221.901,126.206"
         id="path2704" />
    </clipPath>
    <clipPath
       id="clipPath2694">
      <path
         d="M 136.773,89.01 L 221.976,89.01 L 221.976,126.207 L 136.773,126.207 L 136.773,89.01 z"
         id="path2696" />
    </clipPath>
    <clipPath
       id="clipPath3098">
      <path
         d="M 448.155,589.898 L 548.995,589.898 L 548.995,630.637 L 448.155,630.637 L 448.155,589.898 z"
         id="path3100" />
    </clipPath>
    <clipPath
       id="clipPath2634">
      <path
         d="M 350.521,153.92 L 340.986,163.455 L 331.45,153.92 L 340.986,144.384 L 350.521,153.92 z"
         id="path2636" />
    </clipPath>
    <clipPath
       id="clipPath2622">
      <path
         d="M 297.638,126.142 L 384.638,126.142 L 384.638,163.942 L 297.638,163.942 L 297.638,126.142 z"
         id="path2624" />
    </clipPath>
    <clipPath
       id="clipPath2614">
      <path
         d="M 297.638,163.942 L 384.638,163.942 L 384.638,126.142 L 297.638,126.142 L 297.638,163.942 z"
         id="path2616" />
    </clipPath>
    <clipPath
       id="clipPath2606">
      <path
         d="M 297.639,126.144 L 384.111,126.144 L 384.111,162.828 L 297.639,162.828 L 297.639,126.144 z"
         id="path2608" />
    </clipPath>
    <clipPath
       id="clipPath2989">
      <path
         d="M 297.639,126.144 L 384.111,126.144 L 384.111,162.828 L 297.639,162.828 L 297.639,126.144 z"
         id="path2991" />
    </clipPath>
    <clipPath
       id="clipPath2985">
      <path
         d="M 297.638,163.942 L 384.638,163.942 L 384.638,126.142 L 297.638,126.142 L 297.638,163.942 z"
         id="path2987" />
    </clipPath>
    <clipPath
       id="clipPath2981">
      <path
         d="M 297.638,126.142 L 384.638,126.142 L 384.638,163.942 L 297.638,163.942 L 297.638,126.142 z"
         id="path2983" />
    </clipPath>
    <clipPath
       id="clipPath2977">
      <path
         d="M 350.521,153.92 L 340.986,163.455 L 331.45,153.92 L 340.986,144.384 L 350.521,153.92 z"
         id="path2979" />
    </clipPath>
    <clipPath
       id="clipPath2973">
      <path
         d="M 448.155,589.898 L 548.995,589.898 L 548.995,630.637 L 448.155,630.637 L 448.155,589.898 z"
         id="path2975" />
    </clipPath>
    <clipPath
       id="clipPath2969">
      <path
         d="M 136.773,89.01 L 221.976,89.01 L 221.976,126.207 L 136.773,126.207 L 136.773,89.01 z"
         id="path2971" />
    </clipPath>
    <clipPath
       id="clipPath2965">
      <path
         d="M 136.842,126.206 L 136.842,89.01 L 221.901,89.01 L 221.901,126.206"
         id="path2967" />
    </clipPath>
    <clipPath
       id="clipPath2961">
      <path
         d="M 426.852,16.344 L 539.622,16.344 L 539.622,73.224 L 426.852,73.224 L 426.852,16.344 z"
         id="path2963" />
    </clipPath>
    <clipPath
       id="clipPath2957">
      <path
         d="M 426.85,73.228 L 426.85,26.412 L 539.619,26.412 L 539.619,73.228"
         id="path2959" />
    </clipPath>
    <clipPath
       id="clipPath2953">
      <path
         d="M 426.85,73.228 L 426.85,26.412 L 539.619,26.412 L 539.619,73.228"
         id="path2955" />
    </clipPath>
    <clipPath
       id="clipPath5596">
      <path
         d="M 403.659,59.76 L 426.645,59.76 L 426.645,87.165 L 403.659,87.165 L 403.659,59.76 z"
         id="path5598" />
    </clipPath>
    <clipPath
       id="clipPath5604">
      <path
         d="M 403.659,87.165 L 403.659,59.764 L 425.07,59.764 L 425.07,87.165"
         id="path5606" />
    </clipPath>
    <clipPath
       id="clipPath5452">
      <path
         d="M 362.556,59.76 L 395.037,59.76 L 395.037,85.104 L 362.556,85.104 L 362.556,59.76 z"
         id="path5454" />
    </clipPath>
    <clipPath
       id="clipPath5580">
      <path
         d="M 362.557,85.106 L 362.557,59.764 L 395.039,59.764 L 395.039,85.106"
         id="path5582" />
    </clipPath>
  </defs>
  <g
     transform="translate(186.36143,150.74335)"
     id="g3235">
    <path
       d="M 416.81331,-115.23676 C 514.99608,-115.23676 582.68765,-31.508675 582.68765,65.174082 C 582.68765,162.23866 511.69605,244.57582 416.78604,244.71219 L 182.51104,244.71219 C 90.110139,244.73946 1.4456418,162.23866 1.2820039,65.06499 C 1.4456418,-29.790476 90.110139,-115.23676 182.45649,-115.23676 L 416.81331,-115.23676"
       id="path5458"
       style="fill:#1b458e;fill-opacity:1;fill-rule:nonzero;stroke:none" />
    <path
       d="M 416.81331,-115.23676 C 514.99608,-115.23676 582.68765,-31.508675 582.68765,65.174082 C 582.68765,162.23866 511.69605,244.57582 416.78604,244.71219 L 182.51104,244.71219 C 90.110139,244.73946 1.4456418,162.23866 1.2820039,65.06499 C 1.4456418,-29.790476 90.110139,-115.23676 182.45649,-115.23676 L 416.81331,-115.23676 z"
       id="path5462"
       style="fill:none;stroke:none" />
    <path
       d="M 357.52182,64.819536 C 357.54909,155.31132 271.47553,239.63941 182.45648,239.61214 C 91.937424,239.28487 6.5729589,154.9295 6.545686,65.174085 C 6.5729589,-23.599504 91.937424,-110.49126 182.45648,-110.57308 C 271.47553,-110.49126 357.54909,-26.0268 357.52182,64.819536"
       id="path5466"
       style="fill:#eeeeee;fill-opacity:1;fill-rule:nonzero;stroke:none" />
    <path
       d="M 357.52182,64.819536 C 357.54909,155.31132 271.47553,239.63941 182.45648,239.61214 C 91.937424,239.28487 6.5729589,154.9295 6.545686,65.174085 C 6.5729589,-23.599504 91.937424,-110.49126 182.45648,-110.57308 C 271.47553,-110.49126 357.54909,-26.0268 357.52182,64.819536 z"
       id="path5470"
       style="fill:none;stroke:none" />
    <path
       d="M 289.44844,64.710444 C 289.50299,114.9473 253.44809,159.32045 217.03865,166.5478 L 217.03865,-37.426911 C 253.44809,-27.608634 289.50299,13.62813 289.44844,64.710444"
       id="path5474"
       style="fill:#1b458e;fill-opacity:1;fill-rule:nonzero;stroke:none" />
    <path
       d="M 289.44844,64.710444 C 289.50299,114.9473 253.44809,159.32045 217.03865,166.5478 L 217.03865,-37.426911 C 253.44809,-27.608634 289.50299,13.62813 289.44844,64.710444 z"
       id="path5478"
       style="fill:none;stroke:none" />
    <path
       d="M 74.864534,64.601352 C 74.837261,14.364501 110.89216,-30.008657 147.27433,-37.236 L 147.27433,166.76598 C 110.89216,156.92043 74.837261,115.68367 74.864534,64.601352"
       id="path5482"
       style="fill:#1b458e;fill-opacity:1;fill-rule:nonzero;stroke:none" />
    <path
       d="M 74.864534,64.601352 C 74.837261,14.364501 110.89216,-30.008657 147.27433,-37.236 L 147.27433,166.76598 C 110.89216,156.92043 74.837261,115.68367 74.864534,64.601352 z"
       id="path5486"
       style="fill:none;stroke:none" />
    <path
       d="M -150.11038,432.10492 C -136.39207,431.4231 -134.8375,422.72301 -133.47385,417.95024 L -110.15545,334.5767 C -109.47362,332.17668 -108.95544,330.15848 -108.95544,328.27664 C -108.95544,323.34023 -112.55547,320.44929 -125.23741,320.44929 L -124.39195,317.55835 L -71.891439,317.55835 C -46.882105,317.55835 -20.809125,332.53123 -20.809125,365.72246 C -20.809125,400.95916 -53.045801,434.99586 -96.60077,434.99586 L -150.95584,434.99586 L -150.11038,432.10492 z M -115.96459,418.14115 C -116.48278,419.83207 -116.67369,421.19572 -116.67369,422.39573 C -116.67369,427.6867 -112.88275,429.37762 -105.16449,429.37762 L -98.318968,429.37762 C -61.118607,429.37762 -40.527498,397.55004 -40.527498,362.99516 C -40.527498,337.82219 -52.200339,323.17659 -78.409684,323.17659 C -89.046151,323.17659 -90.600711,326.58571 -93.846198,338.47674 L -115.96459,418.14115"
       id="path5490"
       style="fill:#000000;fill-opacity:1;fill-rule:nonzero;stroke:none" />
    <path
       d="M 17.863981,416.01385 C 10.800276,424.98666 1.2274559,436.74132 -10.799934,436.74132 C -16.990903,436.74132 -19.118196,431.47764 -19.118196,427.44123 C -19.118196,425.50485 -18.763647,422.69573 -18.054549,420.05025 L -4.0635046,370.5225 C -3.3544068,368.23157 -2.8362199,366.84065 -2.8362199,365.58609 C -2.8362199,362.61333 -4.9635133,360.84059 -14.509061,360.84059 L -13.636325,357.86783 C 1.5820048,356.44964 11.863923,353.28597 13.473029,353.28597 C 14.700314,353.28597 15.382139,353.64052 15.382139,354.51325 C 15.382139,355.05871 14.700314,357.15873 14.509403,357.86783 L -3.0271309,416.53204 C -3.1907688,417.43205 -4.0635046,421.1139 -4.0635046,422.85937 C -4.0635046,425.50485 -3.1907688,427.08668 -0.5452886,427.08668 C 3.8729361,427.08668 10.800276,419.17752 15.218501,413.55928 L 17.863981,416.01385 z M 21.791292,329.28574 C 21.791292,334.19487 17.536705,338.58583 12.545748,338.58583 C 7.609336,338.58583 3.5456602,334.35851 3.5456602,329.44937 C 3.5456602,324.54023 7.9638849,320.50383 12.736659,320.50383 C 17.536705,320.50383 21.791292,324.34932 21.791292,329.28574"
       id="path5494"
       style="fill:#000000;fill-opacity:1;fill-rule:nonzero;stroke:none" />
    <path
       d="M 32.918673,371.2316 C 33.43686,369.64977 33.818682,368.06793 33.818682,366.64974 C 33.818682,361.0315 29.373184,360.84059 21.927657,360.84059 L 22.827666,357.86783 C 30.600469,357.15874 36.982349,356.09509 41.591484,355.05872 C 46.364258,354.02234 49.39156,353.28597 50.073385,353.28597 C 51.327943,353.28597 52.03704,353.64052 52.03704,354.51326 C 52.03704,355.22235 50.809756,358.22238 50.264296,360.15877 L 41.946033,389.66814 L 42.300582,390.02269 C 46.909718,382.79535 53.618874,373.84981 61.582588,366.84065 C 70.091761,359.44967 79.637308,353.28597 87.437384,353.28597 C 95.210187,353.28597 98.237489,356.64055 98.237489,364.19517 C 98.237489,368.74976 93.819264,384.04991 92.564707,388.44086 L 84.764631,416.53204 C 83.891895,419.69571 83.728257,421.30481 83.728257,422.85937 C 83.728257,424.79576 84.600993,427.08669 86.728286,427.08669 C 90.982873,427.08669 96.982931,418.46842 101.07388,411.97745 L 103.91027,414.62293 C 97.692029,424.08666 89.210128,436.74133 77.155466,436.74133 C 70.99177,436.74133 68.673566,431.47764 68.673566,427.44124 C 68.673566,425.50485 69.191752,422.69574 69.90085,420.05026 L 79.282759,385.79538 C 80.182768,382.63171 83.346435,370.87705 83.346435,367.71338 C 83.346435,364.35881 80.182768,362.96788 78.573662,362.96788 C 69.737212,362.96788 53.809785,379.11349 44.400603,395.64093 C 40.527838,402.48645 35.045966,413.91383 29.564095,434.99586 L 14.127582,434.99586 L 32.918673,371.2316"
       id="path5498"
       style="fill:#000000;fill-opacity:1;fill-rule:nonzero;stroke:none" />
    <path
       d="M 166.17451,417.0775 C 156.81987,427.95942 143.70156,436.74133 128.67415,436.74133 C 111.13761,436.74133 103.883,424.44121 103.883,408.62287 C 103.883,383.34081 129.54688,353.28597 155.75623,353.28597 C 164.59268,353.28597 172.91094,355.93145 172.91094,366.13155 C 172.91094,387.73176 137.86514,396.86821 120.87407,398.96823 C 119.97406,402.67736 119.81042,406.71376 119.81042,410.75017 C 119.81042,421.46845 124.77411,428.83216 136.0924,428.83216 C 146.8925,428.83216 156.27441,421.46845 163.71994,414.62293 L 166.17451,417.0775 z M 121.74681,394.57728 C 137.5106,392.66817 158.75626,382.79535 158.75626,364.54972 C 158.75626,359.80422 156.27441,357.7042 151.85619,357.7042 C 137.70151,357.7042 123.8741,382.46807 121.74681,394.57728"
       id="path5502"
       style="fill:#000000;fill-opacity:1;fill-rule:nonzero;stroke:none" />
    <path
       d="M 186.16561,378.59531 C 187.03835,375.268 187.93835,371.2316 187.93835,367.87702 C 187.93835,360.84059 182.81103,360.84059 176.59279,360.84059 L 177.4928,357.86784 C 186.00197,357.15874 194.32023,355.5769 202.61122,353.83143 C 203.51123,353.64052 204.41124,353.28597 204.92943,353.28597 C 205.80216,353.28597 205.99308,354.02234 205.99308,354.86781 C 205.99308,356.09509 204.41124,362.61334 203.86578,364.54972 L 196.42025,389.47723 L 196.7748,389.47723 C 203.51123,377.53166 217.66592,353.28597 229.17512,353.28597 C 233.23879,353.28597 235.20245,356.64055 235.20245,360.32241 C 235.20245,367.00429 232.17515,372.78616 226.85691,372.78616 C 223.50234,372.78616 220.66594,369.26795 218.56592,367.00429 C 202.44759,382.11353 192.35658,406.71376 186.6838,427.60488 L 184.5565,434.99586 L 170.59273,434.99586 L 186.16561,378.59531"
       id="path5506"
       style="fill:#000000;fill-opacity:1;fill-rule:nonzero;stroke:none" />
    <path
       d="M 281.92109,379.65896 L 278.89379,379.65896 C 278.53924,369.64977 273.76647,357.7042 261.90271,357.7042 C 255.87538,357.7042 250.77533,360.8406 250.77533,367.52248 C 250.77533,374.20436 256.77539,380.69533 262.61181,387.8954 C 268.44823,394.93184 274.31193,402.67737 274.31193,411.97746 C 274.31193,428.31398 260.67543,436.74133 246.68438,436.74133 C 237.65702,436.74133 228.62966,433.41403 227.02056,433.41403 C 225.43872,433.41403 224.02053,434.99586 223.85689,436.74133 L 220.85686,436.74133 L 224.21144,407.94105 L 227.21147,407.94105 C 228.27511,419.17753 232.01151,432.35038 245.78438,432.35038 C 255.71174,432.35038 260.12997,426.21396 260.12997,418.65934 C 260.12997,410.55926 256.93903,406.71377 248.97532,396.67731 C 243.32981,389.47724 236.59338,381.92262 236.59338,372.78617 C 236.59338,360.67696 248.45713,353.28598 259.77542,353.28598 C 263.67546,353.28598 267.38459,354.18599 270.41189,355.05872 C 273.57555,356.09509 276.0574,356.96783 277.6665,356.96783 C 279.60289,356.96783 281.73018,355.93146 282.27564,354.02235 C 282.27564,353.83144 282.43928,353.47689 282.79383,353.28598 L 285.79385,353.28598 L 281.92109,379.65896"
       id="path5510"
       style="fill:#000000;fill-opacity:1;fill-rule:nonzero;stroke:none" />
    <path
       d="M 423.95883,350.2314 L 421.06789,350.2314 L 421.06789,346.14045 C 421.06789,330.32212 414.03146,320.80384 393.95854,320.80384 C 361.20368,320.80384 337.53072,361.30423 337.53072,390.40452 C 337.53072,411.67745 348.52173,429.7049 372.35833,429.7049 C 389.32213,429.7049 403.20408,420.86845 414.35874,408.95015 L 417.6315,411.48654 C 404.24046,427.49579 387.79484,437.36861 366.52191,437.36861 C 337.88527,437.36861 317.81235,418.4957 317.81235,389.88633 C 317.81235,349.90412 355.20362,315.18561 394.99491,315.18561 C 402.00407,315.18561 407.48594,316.35834 411.79508,317.72199 C 416.07694,318.92201 419.15878,320.09474 421.23153,320.09474 C 425.15884,320.09474 426.54976,319.27655 428.07705,316.03107 L 430.99526,316.03107 L 423.95883,350.2314"
       id="path5514"
       style="fill:#000000;fill-opacity:1;fill-rule:nonzero;stroke:none" />
    <path
       d="M 457.77734,416.53204 C 451.42273,424.27757 441.68627,436.74133 430.53162,436.74133 C 424.6952,436.74133 422.02245,433.41402 422.02245,427.60487 C 422.02245,424.79576 422.21336,421.30481 423.9861,415.49567 L 446.64996,333.43123 C 447.71361,329.58574 448.94089,323.44932 448.94089,321.67657 C 448.94089,318.15836 447.87724,317.12198 437.6226,316.76744 L 438.14079,313.76741 C 445.77722,313.41286 453.19548,312.18557 457.6137,311.1492 C 460.99555,310.24919 463.99558,309.37645 465.60469,309.37645 C 466.99561,309.37645 467.5138,310.24919 467.5138,311.50375 C 467.5138,312.02193 466.99561,313.76741 466.28651,316.24925 L 438.84988,413.01382 C 437.78624,416.53204 437.07714,418.65933 437.07714,422.17755 C 437.07714,425.8594 438.65897,427.08669 440.97718,427.08669 C 444.71358,427.08669 452.84093,416.88659 454.96822,414.07747 L 457.77734,416.53204"
       id="path5518"
       style="fill:#000000;fill-opacity:1;fill-rule:nonzero;stroke:none" />
    <path
       d="M 525.85073,416.53204 C 525.33254,418.65933 524.78708,421.30481 524.78708,422.85937 C 524.78708,424.63212 525.65982,427.08669 528.49621,427.08669 C 532.91443,427.08669 539.45995,419.17752 543.90545,413.55928 L 546.55093,416.01385 C 539.8145,424.98667 530.26895,436.74133 518.24157,436.74133 C 512.02332,436.74133 509.73239,431.47764 509.73239,427.44124 C 509.73239,425.50485 510.27785,422.69574 510.98695,420.05026 L 518.24157,395.28638 L 517.88702,395.28638 C 509.73239,408.97742 490.42311,436.74133 472.39567,436.74133 C 464.95014,436.74133 461.0501,431.83219 461.0501,424.79576 C 461.0501,422.34119 461.40465,418.46842 462.65921,413.55928 L 473.62295,372.78616 C 474.16841,370.68614 475.39569,367.00429 475.39569,365.58609 C 475.39569,362.25879 473.2684,361.0315 463.36831,360.84059 L 464.24104,357.86783 C 479.81392,356.44964 490.06856,353.28597 491.67767,353.28597 C 492.93223,353.28597 493.61405,353.64052 493.61405,354.51326 C 493.61405,355.41326 492.22313,359.96785 491.67767,361.7406 L 477.68663,413.91383 C 477.33208,415.30476 476.10479,419.88662 476.10479,421.98664 C 476.10479,423.75938 476.81389,427.08669 481.23212,427.08669 C 497.15954,427.08669 521.59614,387.56812 528.68712,355.05872 L 542.8418,355.05872 L 525.85073,416.53204"
       id="path5522"
       style="fill:#000000;fill-opacity:1;fill-rule:nonzero;stroke:none" />
    <path
       d="M 570.27843,327.64936 C 570.63298,326.06753 570.79662,324.84024 570.79662,323.80387 C 570.79662,318.51291 566.37839,317.99472 560.18742,316.76744 L 560.70561,313.76741 C 569.21478,313.24922 578.95124,312.18557 584.97857,310.24919 C 586.04222,309.92192 587.07859,309.37646 587.81496,309.37646 C 588.6877,309.37646 589.3968,309.731 589.3968,311.1492 C 589.3968,312.02194 588.49679,314.83105 588.33315,315.86743 L 573.46937,369.97704 L 573.27846,369.97704 L 573.63301,369.97704 C 581.43308,359.44967 589.56044,353.28597 603.03329,353.28597 C 618.76981,353.28597 627.27898,364.71336 627.27898,379.46804 C 627.27898,408.97742 598.5878,436.74133 569.05115,436.74133 C 558.06013,436.74133 545.48728,433.57766 545.48728,426.89578 C 545.48728,425.8594 546.03274,423.92302 546.74184,421.30481 L 570.27843,327.64936 z M 559.28741,423.75938 C 559.12378,424.63212 558.76923,425.8594 558.76923,426.73214 C 558.76923,431.314 570.08752,432.35038 572.21481,432.35038 C 594.16957,432.35038 611.32428,403.00464 611.32428,381.92261 C 611.32428,371.2316 607.45152,361.19514 595.23322,361.19514 C 584.43311,361.19514 571.86026,373.33162 568.31477,387.56812 L 559.28741,423.75938"
       id="path5526"
       style="fill:#000000;fill-opacity:1;fill-rule:nonzero;stroke:none" />
    <path
       d="M -148.63764,571.279 C -134.42841,570.59718 -133.55568,565.30621 -131.31929,557.15159 L -108.00088,473.75078 C -107.31906,471.54167 -106.82814,469.49619 -106.82814,467.61436 C -106.82814,463.03249 -109.88272,459.95065 -121.88283,459.62337 L -121.03737,456.73243 L -73.200544,456.73243 L -74.046007,459.62337 C -86.400672,460.46883 -88.800696,466.76889 -90.682532,473.75078 L -114.02821,557.15159 C -114.68276,559.52434 -115.20095,562.088 -115.20095,563.61529 C -115.20095,568.03351 -111.79183,571.279 -98.918976,571.279 L -99.791711,574.16994 L -149.51038,574.16994 L -148.63764,571.279"
       id="path5530"
       style="fill:#000000;fill-opacity:1;fill-rule:nonzero;stroke:none" />
    <path
       d="M -75.409652,510.40568 C -74.891465,508.82385 -74.536916,507.24201 -74.536916,505.85109 C -74.536916,500.20558 -78.955141,500.04194 -86.400668,500.04194 L -85.500659,497.04191 C -77.727856,496.33282 -71.345976,495.29644 -66.736841,494.2328 C -61.964067,493.16915 -58.964038,492.48732 -58.25494,492.48732 C -57.027655,492.48732 -56.291285,492.84187 -56.291285,493.71461 C -56.291285,494.39643 -57.545842,497.39646 -58.064029,499.33285 L -66.382292,528.84222 L -66.027743,529.19677 C -61.44588,521.9967 -54.709451,513.05116 -46.745737,506.01473 C -38.236564,498.62375 -28.691017,492.48732 -20.890941,492.48732 C -13.118138,492.48732 -10.118109,495.81463 -10.118109,503.36925 C -10.118109,507.92384 -14.509061,523.22399 -15.763618,527.61494 L -23.563694,555.70612 C -24.43643,558.86979 -24.627341,560.45162 -24.627341,562.06073 C -24.627341,563.96984 -23.727332,566.26077 -21.600039,566.26077 C -17.345452,566.26077 -11.318121,557.6425 -7.281718,551.15153 L -4.4453268,553.79701 C -10.636296,563.26074 -19.118197,575.91541 -31.172859,575.91541 C -37.363828,575.91541 -39.654759,570.65172 -39.654759,566.61532 C -39.654759,564.67893 -39.136573,561.86982 -38.427475,559.22434 L -29.045566,524.96946 C -28.17283,521.80579 -24.98189,510.05113 -24.98189,506.88746 C -24.98189,503.53289 -28.17283,502.14196 -29.754663,502.14196 C -38.591113,502.14196 -54.51854,518.31485 -63.927722,534.81501 C -67.800487,541.66053 -73.309632,553.08791 -78.76423,574.16994 L -94.17347,574.16994 L -75.409652,510.40568"
       id="path5534"
       style="fill:#000000;fill-opacity:1;fill-rule:nonzero;stroke:none" />
    <path
       d="M 31.691388,557.12431 C 26.373155,563.80619 17.536705,575.9154 5.4820427,575.9154 C -0.7089265,575.9154 -2.8362199,570.65171 -2.8362199,566.61531 C -2.8362199,564.67893 -2.481671,561.86981 -1.7453002,559.22433 L 13.473029,500.04194 L 0.54563114,500.04194 L 1.2547289,497.04191 C 14.700314,494.58734 24.982232,485.09634 31.173201,473.15077 L 34.882328,473.15077 L 29.564095,494.23279 L 43.74605,494.23279 L 42.327855,500.04194 L 27.436801,500.04194 L 13.091207,555.70611 C 12.763932,557.31522 12.218472,560.45162 12.218472,561.86981 C 12.218472,563.80619 12.92757,566.26076 15.763961,566.26076 C 20.182185,566.26076 25.500419,559.22433 29.209546,554.66974 L 31.691388,557.12431"
       id="path5538"
       style="fill:#000000;fill-opacity:1;fill-rule:nonzero;stroke:none" />
    <path
       d="M 96.110195,556.25158 C 86.728286,567.1335 73.63725,575.91541 58.582558,575.91541 C 41.046024,575.91541 33.791408,563.61529 33.791408,547.82423 C 33.791408,522.51489 59.455294,492.48732 85.664639,492.48732 C 94.501088,492.48732 102.81935,495.10553 102.81935,505.30563 C 102.81935,526.90584 67.773556,536.04229 50.809755,538.14231 C 49.909747,541.85144 49.718836,545.88784 49.718836,549.92425 C 49.718836,560.64253 54.68252,568.03351 66.000812,568.03351 C 76.800917,568.03351 86.182826,560.64253 93.628353,553.79701 L 96.110195,556.25158 z M 51.655218,533.75136 C 67.419007,531.81498 88.664668,521.9967 88.664668,503.7238 C 88.664668,498.9783 86.182826,496.87828 81.764601,496.87828 C 67.609918,496.87828 53.809784,521.64215 51.655218,533.75136"
       id="path5542"
       style="fill:#000000;fill-opacity:1;fill-rule:nonzero;stroke:none" />
    <path
       d="M 117.13767,517.76939 C 118.03768,514.44208 118.91041,510.40568 118.91041,507.0511 C 118.91041,500.04195 113.78309,500.04195 107.59212,500.04195 L 108.46486,497.04192 C 116.97403,496.33282 125.29229,494.75098 133.61056,493.00551 C 134.48329,492.84188 135.3833,492.48733 135.90149,492.48733 C 136.8015,492.48733 136.96514,493.16915 136.96514,494.06916 C 136.96514,495.29644 135.3833,501.78742 134.83784,503.7238 L 127.39231,528.67859 L 127.77414,528.67859 C 134.48329,516.73302 148.66525,492.48733 160.14718,492.48733 C 164.23813,492.48733 166.17451,495.81463 166.17451,499.49649 C 166.17451,506.17837 163.17448,511.98752 157.85625,511.98752 C 154.50167,511.98752 151.66528,508.4693 149.53798,506.17837 C 133.41965,521.28761 123.32864,545.88784 117.65586,566.77896 L 115.55584,574.16994 L 101.56479,574.16994 L 117.13767,517.76939"
       id="path5546"
       style="fill:#000000;fill-opacity:1;fill-rule:nonzero;stroke:none" />
    <path
       d="M 178.52918,510.40568 C 179.07464,508.82385 179.42919,507.24201 179.42919,505.85109 C 179.42919,500.20558 175.01096,500.04194 167.56544,500.04194 L 168.46545,497.04191 C 176.23825,496.33282 182.62013,495.29644 187.22926,494.2328 C 192.00204,493.16915 195.00207,492.48732 195.71116,492.48732 C 196.96572,492.48732 197.64755,492.84187 197.64755,493.71461 C 197.64755,494.39643 196.42026,497.39646 195.8748,499.33285 L 187.58381,528.84222 L 187.93836,529.19677 C 192.52022,521.9967 199.25665,513.05116 207.22037,506.01473 C 215.72954,498.62375 225.27509,492.48732 233.07516,492.48732 C 240.84797,492.48732 243.87527,495.81463 243.87527,503.36925 C 243.87527,507.92384 239.42977,523.22399 238.20249,527.61494 L 230.42968,555.70612 C 229.52968,558.86979 229.33876,560.45162 229.33876,562.06073 C 229.33876,563.96984 230.23877,566.26077 232.36607,566.26077 C 236.59338,566.26077 242.62071,557.6425 246.68439,551.15153 L 249.52078,553.79701 C 243.32981,563.26074 234.82064,575.91541 222.79325,575.91541 C 216.60228,575.91541 214.31135,570.65172 214.31135,566.61532 C 214.31135,564.67893 214.82953,561.86982 215.53863,559.22434 L 224.92054,524.96946 C 225.82055,521.80579 228.98422,510.05113 228.98422,506.88746 C 228.98422,503.53289 225.82055,502.14196 224.21144,502.14196 C 215.37499,502.14196 199.42029,518.31485 190.06566,534.81501 C 186.16562,541.66053 180.68375,553.08791 175.1746,574.16994 L 159.79263,574.16994 L 178.52918,510.40568"
       id="path5550"
       style="fill:#000000;fill-opacity:1;fill-rule:nonzero;stroke:none" />
    <path
       d="M 310.585,556.41522 C 309.68499,559.41525 309.33044,561.70618 309.33044,562.57892 C 309.33044,563.96984 310.06681,566.26077 311.81228,566.26077 C 316.06687,566.26077 322.25784,557.12432 324.38513,553.96065 L 327.05789,556.06067 C 321.73965,564.13348 312.71229,575.91541 301.91219,575.91541 C 296.07577,575.91541 295.01212,572.23356 295.01212,567.32442 C 295.01212,561.16072 299.0758,550.63335 301.394,542.36963 L 301.01218,542.36963 C 293.56665,555.89703 281.37563,575.91541 263.48454,575.91541 C 252.32989,575.91541 248.45712,566.96987 248.45712,557.31523 C 248.45712,533.94227 270.93007,492.48733 298.55761,492.48733 C 305.62132,492.48733 309.52135,495.29644 312.16683,501.59651 L 312.52138,501.59651 L 314.48504,494.2328 L 327.57607,494.2328 L 310.585,556.41522 z M 264.38455,555.54248 C 264.38455,561.51527 266.32093,566.26077 271.63917,566.26077 C 280.14834,566.26077 288.82115,558.51524 297.30305,541.49689 C 303.84857,528.32404 307.74861,513.73299 307.74861,507.92384 C 307.74861,501.26923 303.49402,496.87828 298.3667,496.87828 C 278.18469,496.87828 264.38455,539.04232 264.38455,555.54248"
       id="path5554"
       style="fill:#000000;fill-opacity:1;fill-rule:nonzero;stroke:none" />
    <path
       d="M 366.16736,557.12431 C 360.84913,563.80619 352.01268,575.9154 339.95801,575.9154 C 333.76705,575.9154 331.63975,570.65171 331.63975,566.61531 C 331.63975,564.67893 331.9943,561.86981 332.7034,559.22433 L 347.92173,500.04194 L 335.0216,500.04194 L 335.7307,497.04191 C 349.17629,494.58734 359.43093,485.09634 365.6219,473.15077 L 369.3583,473.15077 L 364.04007,494.23279 L 378.19475,494.23279 L 376.77655,500.04194 L 361.91277,500.04194 L 347.59445,555.70611 C 347.2399,557.31522 346.69444,560.45162 346.69444,561.86981 C 346.69444,563.80619 347.40354,566.26076 350.23993,566.26076 C 354.65816,566.26076 359.97639,559.22433 363.68552,554.66974 L 366.16736,557.12431"
       id="path5558"
       style="fill:#000000;fill-opacity:1;fill-rule:nonzero;stroke:none" />
    <path
       d="M 411.95872,555.18793 C 404.86774,564.13347 395.32219,575.9154 383.29481,575.9154 C 377.07656,575.9154 374.94927,570.65172 374.94927,566.61531 C 374.94927,564.67893 375.30382,561.86981 376.01292,559.22433 L 390.00396,509.69658 C 390.71306,507.40565 391.23125,506.01473 391.23125,504.78744 C 391.23125,501.78741 389.13123,500.04194 379.55841,500.04194 L 380.43114,497.04191 C 395.67674,495.65099 405.93139,492.48732 407.5405,492.48732 C 408.76778,492.48732 409.47688,492.84187 409.47688,493.71461 C 409.47688,494.23279 408.76778,496.33281 408.57687,497.04191 L 391.06761,555.70612 C 390.8767,556.60613 390.00396,560.28798 390.00396,562.06072 C 390.00396,564.67893 390.8767,566.26076 393.54945,566.26076 C 397.96768,566.26076 404.86774,558.3516 409.28597,552.73336 L 411.95872,555.18793 z M 418.61333,468.45982 C 418.61333,473.36895 414.35874,477.75991 409.42233,477.75991 C 404.45865,477.75991 400.39497,473.53259 400.39497,468.62345 C 400.39497,463.71431 404.8132,459.67791 409.58597,459.67791 C 414.35874,459.67791 418.61333,463.5234 418.61333,468.45982"
       id="path5562"
       style="fill:#000000;fill-opacity:1;fill-rule:nonzero;stroke:none" />
    <path
       d="M 495.41407,520.06032 C 495.41407,545.01511 467.43198,575.91541 440.51354,575.91541 C 422.81337,575.91541 410.97689,565.19712 410.97689,547.46968 C 410.97689,521.09669 438.57715,492.48733 465.4956,492.48733 C 482.13212,492.48733 495.41407,502.85106 495.41407,520.06032 M 479.48664,515.47846 C 479.48664,504.4329 475.39569,496.87828 463.17739,496.87828 C 441.24991,496.87828 426.90431,534.46046 426.90431,552.56973 C 426.90431,563.45165 430.25889,571.52446 442.31355,571.52446 C 464.95014,571.52446 479.48664,533.58772 479.48664,515.47846"
       id="path5566"
       style="fill:#000000;fill-opacity:1;fill-rule:nonzero;stroke:none" />
    <path
       d="M 510.27785,510.40568 C 510.79604,508.82385 511.15059,507.24201 511.15059,505.85109 C 511.15059,500.20558 506.73236,500.04194 499.28683,500.04194 L 500.15957,497.04191 C 507.95965,496.33282 514.34153,495.29644 518.95066,494.2328 C 523.69616,493.16915 526.72346,492.48732 527.43256,492.48732 C 528.68712,492.48732 529.36894,492.84187 529.36894,493.71461 C 529.36894,494.39643 528.14166,497.39646 527.62347,499.33285 L 519.27794,528.84222 L 519.63249,529.19677 C 524.24162,521.9967 530.95078,513.05116 538.94176,506.01473 C 547.45094,498.62375 556.99649,492.48732 564.79656,492.48732 C 572.56936,492.48732 575.56939,495.81463 575.56939,503.36925 C 575.56939,507.92384 571.15117,523.22399 569.92388,527.61494 L 562.12381,555.70612 C 561.2238,558.86979 561.06016,560.45162 561.06016,562.06073 C 561.06016,563.96984 561.96017,566.26077 564.06019,566.26077 C 568.31478,566.26077 574.34211,557.6425 578.40578,551.15153 L 581.24218,553.79701 C 575.05121,563.26074 566.54203,575.91541 554.51464,575.91541 C 548.32367,575.91541 546.03274,570.65172 546.03274,566.61532 C 546.03274,564.67893 546.55093,561.86982 547.26003,559.22434 L 556.64194,524.96946 C 557.51467,521.80579 560.70561,510.05113 560.70561,506.88746 C 560.70561,503.53289 557.51467,502.14196 555.93284,502.14196 C 547.06912,502.14196 531.14169,518.31485 521.75978,534.81501 C 517.85974,541.66053 512.37787,553.08791 506.896,574.16994 L 491.48676,574.16994 L 510.27785,510.40568"
       id="path5570"
       style="fill:#000000;fill-opacity:1;fill-rule:nonzero;stroke:none" />
    <path
       d="M 641.4064,556.41522 C 640.50639,559.41525 640.17912,561.70618 640.17912,562.57892 C 640.17912,563.96984 640.88821,566.26077 642.66096,566.26077 C 646.88827,566.26077 653.10651,557.12432 655.20653,553.96065 L 657.85201,556.06067 C 652.56105,564.13348 643.53369,575.91541 632.73359,575.91541 C 626.89717,575.91541 625.83352,572.23356 625.83352,567.32442 C 625.83352,561.16072 629.8972,550.63335 632.2154,542.36963 L 631.86085,542.36963 C 624.41533,555.89703 612.19703,575.91541 594.33322,575.91541 C 583.17856,575.91541 579.27852,566.96987 579.27852,557.31523 C 579.27852,533.94227 601.75147,492.48733 629.37901,492.48733 C 636.44272,492.48733 640.34275,495.29644 643.01551,501.59651 L 643.34278,501.59651 L 645.30644,494.2328 L 658.39747,494.2328 L 641.4064,556.41522 z M 595.20595,555.54248 C 595.20595,561.51527 597.16961,566.26077 602.46057,566.26077 C 610.96974,566.26077 619.64255,558.51524 628.12445,541.49689 C 634.69724,528.32404 638.57001,513.73299 638.57001,507.92384 C 638.57001,501.26923 634.3427,496.87828 629.1881,496.87828 C 609.03336,496.87828 595.20595,539.04232 595.20595,555.54248"
       id="path5574"
       style="fill:#000000;fill-opacity:1;fill-rule:nonzero;stroke:none" />
    <path
       d="M 693.47054,555.70612 C 687.08866,563.45165 677.3522,575.91541 666.19755,575.91541 C 660.36113,575.91541 657.71565,572.5881 657.71565,566.77895 C 657.71565,563.96984 657.87929,560.45162 659.65203,554.66975 L 682.31589,472.63259 C 683.37953,468.75982 684.60682,462.6234 684.60682,460.85065 C 684.60682,457.33244 683.54317,456.29606 673.28853,455.94152 L 673.80671,452.94149 C 681.44315,452.61421 688.8614,451.35965 693.27963,450.32328 C 696.66148,449.42327 699.66151,448.55053 701.27062,448.55053 C 702.66154,448.55053 703.207,449.42327 703.207,450.67783 C 703.207,451.19601 702.66154,452.94149 701.95244,455.42333 L 674.51581,552.21518 C 673.45216,555.70612 672.74307,557.83341 672.74307,561.35163 C 672.74307,565.03348 674.35217,566.26077 676.6431,566.26077 C 680.3795,566.26077 688.50686,556.06067 690.63415,553.25155 L 693.47054,555.70612"
       id="path5586"
       style="fill:#000000;fill-opacity:1;fill-rule:nonzero;stroke:none" />
    <path
       d="M 720.4708,458.34154 C 722.05263,458.39609 723.14355,458.39609 724.15265,458.72336 C 726.06176,459.35064 726.85268,461.04157 726.85268,462.48703 C 726.85268,465.21433 724.39811,465.9507 723.85265,466.16889 C 724.77993,466.6598 725.48903,467.04162 725.81631,469.30528 C 726.14358,471.21439 726.33449,472.65986 727.12541,474.07806 L 723.30719,474.07806 C 722.84355,473.06896 722.65264,471.89622 722.489,470.64166 C 722.05263,467.778 721.889,467.31435 719.1617,467.25981 L 718.37078,467.25981 L 718.37078,474.07806 L 715.04347,474.07806 L 715.04347,458.34154 L 720.4708,458.34154 z M 718.37078,464.61433 L 720.36171,464.61433 C 721.58899,464.61433 723.52538,464.6416 723.52538,462.67795 C 723.52538,462.2143 723.36174,461.42339 722.54355,461.06884 C 722.02536,460.87793 721.83445,460.87793 719.87079,460.87793 L 718.37078,460.87793 L 718.37078,464.61433 z M 720.55262,480.78721 C 713.10709,480.78721 706.26157,475.00534 706.26157,466.57798 C 706.26157,458.36881 712.80709,452.31421 720.55262,452.31421 C 728.89815,452.31421 734.98003,458.85973 734.92549,466.63253 C 734.89821,474.51442 728.6527,480.78721 720.55262,480.78721 M 720.55262,454.11423 C 713.46164,454.11423 707.9525,459.73246 707.9525,466.57798 C 707.9525,473.55987 713.57073,479.04174 720.52535,479.04174 C 727.61632,479.04174 733.04365,473.5326 733.07092,466.60526 C 733.12547,459.81428 727.72542,454.11423 720.55262,454.11423"
       id="path5590"
       style="fill:#000000;fill-opacity:1;fill-rule:nonzero;stroke:none" />
  </g>
</svg>
